<?xml version="1.0" encoding="utf-8"?>
<!-- Generator: Adobe Illustrator 24.2.0, SVG Export Plug-In . SVG Version: 6.00 Build 0)  -->
<svg version="1.1" id="Layer_1" xmlns="http://www.w3.org/2000/svg" xmlns:xlink="http://www.w3.org/1999/xlink" x="0px" y="0px"
	 viewBox="0 0 354.19 352.91" style="enable-background:new 0 0 354.19 352.91;" xml:space="preserve">
<style type="text/css">
	.st0{fill:#2196F3;}
</style>
<g>
	<path class="st0" d="M250.05,322.01c0.04-0.01,0.08-0.02,0.12-0.05c23.22-13.1,40.77-31.68,53.25-55.15
		c27.01-50.81,21.76-113.44-14.91-156.85c-36.77-43.53-84.08-61.67-140.46-50.61c-34.71,6.81-63.49,24.82-84.74,53.88
		c-9.05,12.38-23.34,14.44-35.98,5.73c-7.8-5.38-10.63-12.89-8.46-22.14c1.2-5.09,3.47-9.71,6.31-14.01
		C54.09,39,94.43,12.52,146.01,2.91c82.45-15.36,174.34,30.48,201.86,129.16c19.07,68.4-5.54,141.55-66.65,186.39
		c-39.67,29.11-84.13,39.3-132.61,32.36c-27.61-3.96-52.23-14.17-70.97-35.84c-1.1-1.27-2.21-2.54-3.61-4.15
		c-0.28-0.32-0.01-0.83,0.41-0.76c2.38,0.39,3.92,1.65,5.56,2.53c31.29,16.75,64.6,25.1,100.14,24.31
		c46.04-1.02,84.62-36.95,91.03-82.57c6.02-42.83-21.58-98.73-83.39-106.62c-12.28-1.57-24.21-0.73-36.06,2.59
		c-2.4,0.67-4.81,1.31-7.25,1.8c-12.52,2.49-23.19-3.47-27.31-15.21c-4.1-11.7,0.78-23.86,12.38-29.2
		c18.08-8.32,37.31-10.99,56.99-9.4c52.3,4.22,97.14,40.7,109.54,91.36c12.55,51.27-3.15,94.09-43.48,127.96
		c-1.23,1.03-2.44,2.08-3.66,3.12c-0.06,0.05-0.1,0.12-0.13,0.19c-0.46,1.33-1.62,1.93-2.7,2.64c-1.1,0.72-2.31,1.23-3.42,1.94
		C245.18,324.43,247.31,322.58,250.05,322.01z"/>
	<path class="st0" d="M228.75,294.41c0.28,0.35,0.31,0.84,0.06,1.21c-6.1,9.08-14.06,16.21-23.76,21.49
		c-39.65,21.57-89.41-6.86-92.41-51.85c-2.44-36.58,30.72-72.83,74.03-65.87c25.75,4.14,44.2,21.54,48.73,46.13
		c1.89,10.28-1.26,19.18-8.67,26.36c-8.47,8.2-23.42,6.22-30.81-3.8c-3.01-4.08-4.49-8.85-6.14-13.55
		c-5.53-15.74-21.62-21.18-36.26-12.83c-28.82,16.43-21.32,48.59-4.45,62.53c15.67,12.95,33.21,15.21,51.96,8.28
		c8.62-3.19,16.39-8.07,22.96-14.66c1.06-1.06,2.79-2.77,3.74-3.54C228.05,294.04,228.5,294.1,228.75,294.41L228.75,294.41z"/>
	<path class="st0" d="M24.69,155.01c12.3-0.13,23.74,11.4,23.92,24.1c0.19,12.81-11.13,24.16-24.19,24.27
		C11.46,203.47,0.02,192.23,0,179.38C-0.02,166.27,11.25,155.15,24.69,155.01z"/>
	<path class="st0" d="M72.96,257.16c-0.05,9.32-7.58,16.85-16.78,16.78c-9.14-0.07-17.33-8.31-17.16-17.25
		c0.18-9.19,7.86-16.7,17.05-16.66C65.77,240.07,73.02,247.42,72.96,257.16z"/>
	<path class="st0" d="M250.12,321.99c-3.29,2.6-6.98,4.4-10.7,6.16c-0.24-0.39-0.47-0.78-0.71-1.17c3.38-2.06,6.75-4.11,10.13-6.17
		C249.26,321.21,249.69,321.6,250.12,321.99z"/>
</g>
</svg>
