<svg width="16" height="16" viewBox="0 0 16 16" fill="none" xmlns="http://www.w3.org/2000/svg">
<path d="M15.8938 14.2757L10.8882 9.26141C11.5383 8.29063 11.8876 7.14916 11.8876 5.954C11.8876 4.36361 11.2694 2.86842 10.1467 1.74378C9.02394 0.619297 7.53147 0 5.9438 0C4.35613 0 2.8635 0.619297 1.74079 1.74378C0.618236 2.86842 0 4.36361 0 5.954C0 7.5444 0.618236 9.03943 1.74095 10.1641C2.86366 11.2887 4.35613 11.908 5.94396 11.908C7.15051 11.908 8.30186 11.55 9.27802 10.8847L14.2788 15.8937C14.4476 16.0629 14.758 16.0261 14.9719 15.8118L15.8122 14.97C16.0261 14.7557 16.0628 14.4448 15.8938 14.2757ZM5.9438 10.295C3.55406 10.295 1.61007 8.34769 1.61007 5.954C1.61007 3.56032 3.55422 1.61283 5.9438 1.61283C8.33338 1.61283 10.2774 3.56032 10.2774 5.954C10.2774 8.34769 8.33338 10.295 5.9438 10.295Z" fill="#85889F"/>
</svg>
